# xmcd
#
# Track frame offsets: 
#        150
#        15027
#        33086
#        71675
#        84137
#        106662
#        120748
#        137350
#        155828
#        175221
#        201694
#
# Disc length: 3052 seconds
#
# Revision: 0
# Processed by: cddbd v1.4PL0 Copyright (c) Steve Scherf et al.
# Submitted via: ExactAudioCopy v0.90b4
#
DISCID=820bea0b
DTITLE=Amund Maarud - ripped, stripped and southern fried
DYEAR=2003
DGENRE=Blues
TTITLE0=Ah'w Baby
TTITLE1=You Wish I Was
TTITLE2=Catfish
TTITLE3=Sweeter Than Honey
TTITLE4=She Loves Me, she loves me not
TTITLE5=Let's Get High
TTITLE6=Heart On The Rocks
TTITLE7=Ain't No Big Deal On You
TTITLE8=D/Fw
TTITLE9=Ten Days
TTITLE10=The Lights Are On But Nobody's Home (Bonus Track)
EXTD=
EXTT0=
EXTT1=
EXTT2=
EXTT3=
EXTT4=
EXTT5=
EXTT6=
EXTT7=
EXTT8=
EXTT9=
EXTT10=
PLAYORDER=
